<?xml version="1.0" encoding="UTF-8"?><svg id="Layer_2" xmlns="http://www.w3.org/2000/svg" viewBox="0 0 206.35 206.35"><defs><style>.cls-1{fill:#fff;}.cls-2{fill:#345b9a;}</style></defs><g id="Layer_1-2"><g><circle class="cls-2" cx="103.17" cy="103.17" r="103.17"/><g><path class="cls-1" d="M129.74,113.15c-1.73,0-3.48-.59-4.9-1.81l-38.9-33.25c-3.17-2.71-3.54-7.47-.83-10.64,2.71-3.17,7.47-3.54,10.64-.83l38.9,33.25c3.17,2.71,3.54,7.47,.83,10.64-1.49,1.75-3.61,2.64-5.74,2.64Z"/><path class="cls-1" d="M87.01,144.3c-2.36,0-4.69-1.11-6.16-3.19-2.41-3.4-1.6-8.11,1.8-10.52l42.74-30.26c3.4-2.41,8.11-1.6,10.52,1.8s1.6,8.11-1.8,10.52l-42.74,30.26c-1.32,.94-2.85,1.39-4.35,1.39Z"/></g></g></g></svg>