<?xml version="1.0" encoding="UTF-8"?><svg id="Layer_2" xmlns="http://www.w3.org/2000/svg" xmlns:xlink="http://www.w3.org/1999/xlink" viewBox="0 0 339 201"><defs><style>.cls-1{fill:#345b9a;}.cls-2{fill:none;stroke:url(#linear-gradient);stroke-linecap:round;stroke-linejoin:round;stroke-width:5px;}.cls-3{fill:#fff;filter:url(#drop-shadow-1);}</style><filter id="drop-shadow-1" filterUnits="userSpaceOnUse"><feOffset dx="4" dy="4"/><feGaussianBlur result="blur" stdDeviation="25"/><feFlood flood-color="#000" flood-opacity=".15"/><feComposite in2="blur" operator="in"/><feComposite in="SourceGraphic"/></filter><linearGradient id="linear-gradient" x1="166.93" y1="96.23" x2="251.64" y2="96.23" gradientUnits="userSpaceOnUse"><stop offset="0" stop-color="#fff" stop-opacity="0"/><stop offset="1" stop-color="#345b9a"/></linearGradient></defs><g id="Design"><g><rect class="cls-3" x="71.46" y="71.34" width="188.46" height="49.79" rx="24.89" ry="24.89"/><polyline class="cls-2" points="169.43 102.48 249.14 102.48 237.78 89.99"/><g><path class="cls-1" d="M103.87,101.77l1.49-2.64c.05-.08,.13-.13,.21-.13s.13,.03,.21,.08c.61,.54,2.64,1.69,4.84,1.69,1.56,0,2.87-.64,2.87-1.77,0-.82-.59-1.61-3.38-2.13-4.1-.74-6.1-2.28-6.2-5.35-.1-3.2,2.48-5.56,6.58-5.53,3,.03,5.07,1.26,5.56,1.72,.1,.08,.13,.23,.08,.36l-1.2,2.72c-.05,.1-.1,.15-.15,.15-.08,0-.13-.03-.21-.08-.64-.44-2.05-1.36-4.15-1.36-1.08,0-3,.38-3,1.77,0,1.08,.9,1.49,3.43,2.08,4,.9,6.05,2.31,6.15,5.48,.1,3.15-2.48,5.46-6.66,5.43-3.36-.03-5.87-1.61-6.4-2.15-.1-.08-.15-.18-.05-.33Z"/><path class="cls-1" d="M118.13,91.75h3.23c.13,0,.23,.08,.26,.23l1.54,7.28,1.97-7.28c.05-.15,.13-.23,.28-.23h2.38c.15,0,.28,.08,.31,.23l1.97,7.71,1.49-7.71c.03-.13,.13-.23,.26-.23h3.23c.15,0,.23,.1,.18,.26l-3.23,11.79c-.05,.13-.15,.21-.31,.21h-3c-.15,0-.26-.08-.31-.21l-1.79-7.22-1.82,7.22c-.05,.13-.18,.21-.31,.21h-2.92c-.13,0-.26-.08-.28-.21l-3.28-11.79c-.05-.13,.03-.26,.15-.26Z"/><path class="cls-1" d="M138.34,85.68c1.26,0,2.08,.82,2.08,2.08s-.82,2.1-2.08,2.1-2.1-.85-2.1-2.1,.85-2.08,2.1-2.08Zm1.67,18.06c0,.15-.1,.26-.26,.26h-2.82c-.15,0-.26-.1-.26-.26v-11.73c0-.15,.1-.26,.28-.26h2.82c.13,0,.23,.1,.23,.23v11.76Z"/><path class="cls-1" d="M142.8,109.55v-17.55c.03-.18,.1-.28,.28-.28h2c.18,0,.28,.13,.33,.26l.41,1.26c.82-1.13,2.05-1.77,3.64-1.77,3.71,0,6.17,2.59,6.17,6.41s-2.46,6.41-6.17,6.41c-1.41,0-2.51-.51-3.3-1.38v6.69c0,.15-.1,.26-.26,.26h-2.82c-.18,0-.28-.1-.28-.28Zm6.46-8.61c1.82,0,3.05-1.23,3.05-3.07s-1.2-3.07-3.05-3.07-3.05,1.23-3.05,3.07,1.23,3.07,3.05,3.07Z"/><path class="cls-1" d="M163.7,101.15c1.15,0,2.02-.36,2.54-.79,.1-.08,.18-.13,.26-.13s.13,.05,.18,.1l1.74,1.82c.1,.1,.13,.26,.03,.38-1.13,1.23-2.84,1.72-4.94,1.74-3.87,0-6.43-2.56-6.43-6.38s2.54-6.38,6.33-6.38,6.35,2.23,6.33,7.4c0,.15-.1,.28-.26,.26h-8.84c.38,1.18,1.41,1.97,3.07,1.97Zm2.51-4.36c-.31-1.28-1.26-2.15-2.82-2.15s-2.54,.87-2.84,2.15h5.66Z"/></g></g></g></svg>