<?xml version="1.0" encoding="utf-8"?>
<!-- Generator: Adobe Illustrator 27.0.0, SVG Export Plug-In . SVG Version: 6.00 Build 0)  -->
<svg version="1.1" id="Layer_2_00000003823471287211105240000000453849474149835650_"
	 xmlns="http://www.w3.org/2000/svg" xmlns:xlink="http://www.w3.org/1999/xlink" x="0px" y="0px" viewBox="0 0 206.4 206.4"
	 style="enable-background:new 0 0 206.4 206.4;" xml:space="preserve">
<style type="text/css">
	.st0{fill:#345B9A;}
	.st1{fill:#FFFFFF;}
</style>
<g id="Layer_1-2">
	<g>
		<circle class="st0" cx="103.2" cy="103.2" r="72.6"/>
		<g>
			<path class="st1" d="M98.8,117.8c-0.1-1.2,0.3-2.5,1.1-3.5l21.7-28.7c1.8-2.3,5.1-2.8,7.4-1c2.3,1.8,2.8,5.1,1,7.4l-21.7,28.7
				c-1.8,2.3-5.1,2.8-7.4,1C99.6,120.8,98.9,119.3,98.8,117.8z"/>
			<path class="st1" d="M75.2,89.1c-0.1-1.7,0.6-3.3,2-4.5c2.3-1.8,5.6-1.5,7.5,0.8l23,28.8c1.8,2.3,1.5,5.6-0.8,7.5
				c-2.3,1.8-5.6,1.5-7.5-0.8l-23-28.8C75.6,91.2,75.2,90.2,75.2,89.1L75.2,89.1z"/>
		</g>
	</g>
</g>
</svg>
